<svg width="16" height="18" viewBox="0 0 16 18" fill="none" xmlns="http://www.w3.org/2000/svg">
<path d="M16 1.88855H6.22223V3.14758H16V1.88855Z" fill="white"/>
<path d="M0 2.51806C0 3.01608 0.13902 3.50292 0.399479 3.91702C0.659939 4.33111 1.03014 4.65385 1.46327 4.84444C1.8964 5.03503 2.373 5.08489 2.83281 4.98773C3.29261 4.89057 3.71497 4.65075 4.04648 4.29859C4.37798 3.94644 4.60373 3.49776 4.6952 3.00931C4.78666 2.52085 4.73972 2.01455 4.56031 1.55444C4.3809 1.09432 4.07708 0.701057 3.68728 0.424369C3.29747 0.147682 2.83919 0 2.37037 0C1.74193 0.000749786 1.13942 0.266285 0.695045 0.73835C0.250667 1.21042 0.00070581 1.85046 0 2.51806ZM2.37037 1.25903C2.60478 1.25903 2.83392 1.33287 3.02882 1.47121C3.22373 1.60956 3.37563 1.80619 3.46534 2.03625C3.55504 2.26631 3.57851 2.51945 3.53278 2.76368C3.48705 3.00791 3.37417 3.23225 3.20842 3.40833C3.04267 3.5844 2.83149 3.70431 2.60159 3.75289C2.37169 3.80147 2.13338 3.77654 1.91682 3.68125C1.70026 3.58596 1.51515 3.42458 1.38493 3.21754C1.2547 3.01049 1.18519 2.76707 1.18519 2.51806C1.18554 2.18426 1.31052 1.86424 1.53271 1.6282C1.7549 1.39217 2.05615 1.2594 2.37037 1.25903Z" fill="white"/>
<path d="M16 8.18372H6.22223V9.44274H16V8.18372Z" fill="white"/>
<path d="M2.37037 11.3313C2.83919 11.3313 3.29747 11.1836 3.68728 10.9069C4.07708 10.6302 4.3809 10.237 4.56031 9.77684C4.73972 9.31673 4.78666 8.81043 4.6952 8.32198C4.60373 7.83352 4.37798 7.38485 4.04648 7.03269C3.71497 6.68053 3.29261 6.44071 2.83281 6.34355C2.373 6.24639 1.8964 6.29626 1.46327 6.48684C1.03014 6.67743 0.659939 7.00017 0.399479 7.41427C0.13902 7.82836 0 8.3152 0 8.81323C0.00070581 9.48083 0.250667 10.1209 0.695045 10.5929C1.13942 11.065 1.74193 11.3305 2.37037 11.3313ZM2.37037 7.5542C2.60478 7.5542 2.83392 7.62804 3.02882 7.76638C3.22373 7.90472 3.37563 8.10136 3.46534 8.33142C3.55504 8.56147 3.57851 8.81462 3.53278 9.05885C3.48705 9.30308 3.37417 9.52741 3.20842 9.70349C3.04267 9.87957 2.83149 9.99948 2.60159 10.0481C2.37169 10.0966 2.13338 10.0717 1.91682 9.97642C1.70026 9.88112 1.51515 9.71975 1.38493 9.5127C1.2547 9.30566 1.18519 9.06224 1.18519 8.81323C1.18554 8.47942 1.31052 8.1594 1.53271 7.92337C1.7549 7.68734 2.05615 7.55457 2.37037 7.5542Z" fill="white"/>
<path d="M16 14.4788H6.22223V15.7378H16V14.4788Z" fill="white"/>
<path d="M2.37037 17.6264C2.83919 17.6264 3.29747 17.4788 3.68728 17.2021C4.07708 16.9254 4.3809 16.5321 4.56031 16.072C4.73972 15.6119 4.78666 15.1056 4.6952 14.6171C4.60373 14.1287 4.37798 13.68 4.04648 13.3279C3.71497 12.9757 3.29261 12.7359 2.83281 12.6387C2.373 12.5416 1.8964 12.5914 1.46327 12.782C1.03014 12.9726 0.659939 13.2953 0.399479 13.7094C0.13902 14.1235 0 14.6104 0 15.1084C0.00070581 15.776 0.250667 16.416 0.695045 16.8881C1.13942 17.3602 1.74193 17.6257 2.37037 17.6264ZM2.37037 13.8494C2.60478 13.8494 2.83392 13.9232 3.02882 14.0615C3.22373 14.1999 3.37563 14.3965 3.46534 14.6266C3.55504 14.8566 3.57851 15.1098 3.53278 15.354C3.48705 15.5982 3.37417 15.8226 3.20842 15.9987C3.04267 16.1747 2.83149 16.2946 2.60159 16.3432C2.37169 16.3918 2.13338 16.3669 1.91682 16.2716C1.70026 16.1763 1.51515 16.0149 1.38493 15.8079C1.2547 15.6008 1.18519 15.3574 1.18519 15.1084C1.18554 14.7746 1.31052 14.4546 1.53271 14.2185C1.7549 13.9825 2.05615 13.8497 2.37037 13.8494Z" fill="white"/>
</svg>
