<svg width="20" height="20" viewBox="0 0 20 20" fill="none" xmlns="http://www.w3.org/2000/svg">
<path d="M10.004 9.52416e-06C4.81078 -0.00710252 0.478255 3.96973 0.0366444 9.14903C-0.404979 14.3283 3.19162 18.9825 8.31082 19.8565C13.4301 20.7303 18.3645 17.5322 19.6628 12.4992H17.0643C15.794 16.0953 12.0294 18.1643 8.31619 17.307C4.6031 16.4496 2.12437 12.939 2.55632 9.14928C2.98826 5.35955 6.19326 2.49804 10.004 2.49985C11.9888 2.50276 13.8892 3.30452 15.2773 4.72472L11.2589 8.74943H20V9.52416e-06L17.0643 2.93733C15.1958 1.05573 12.6544 -0.00159037 10.004 9.52416e-06Z" fill="white"/>
</svg>
