<svg width="46" height="25" viewBox="0 0 46 25" fill="none" xmlns="http://www.w3.org/2000/svg">
<path d="M40.25 3.125H43.125V21.875H40.25V3.125Z" fill="white"/>
<path d="M7.1875 21.875C6.80625 21.875 6.44062 21.7927 6.17103 21.6462C5.90145 21.4997 5.75 21.301 5.75 21.0938V3.9063C5.75006 3.7691 5.8166 3.63433 5.94293 3.51555C6.06926 3.39676 6.25091 3.29815 6.46962 3.22964C6.68834 3.16112 6.93639 3.12512 7.18883 3.12524C7.44128 3.12537 7.68921 3.16163 7.90769 3.23036L35.2202 11.8241C35.438 11.8928 35.6188 11.9914 35.7445 12.11C35.8702 12.2286 35.9364 12.363 35.9364 12.4999C35.9364 12.6368 35.8702 12.7712 35.7445 12.8898C35.6188 13.0084 35.438 13.107 35.2202 13.1757L7.90769 21.7694C7.68897 21.8385 7.4405 21.875 7.1875 21.875Z" fill="white"/>
</svg>
