<svg width="55" height="43" viewBox="0 0 55 43" fill="none" xmlns="http://www.w3.org/2000/svg">
<path d="M24.0625 13.4375H20.625V29.5625H24.0625V13.4375Z" fill="white"/>
<path d="M34.375 13.4375H30.9375V29.5625H34.375V13.4375Z" fill="white"/>
<path d="M27.5 5.375C31.5792 5.375 35.5669 6.32071 38.9586 8.09255C42.3504 9.86439 44.994 12.3828 46.555 15.3292C48.1161 18.2757 48.5245 21.5179 47.7287 24.6458C46.9329 27.7738 44.9685 30.647 42.0841 32.9021C39.1996 35.1572 35.5246 36.693 31.5237 37.3152C27.5229 37.9373 23.3759 37.618 19.6072 36.3976C15.8384 35.1771 12.6173 33.1103 10.3509 30.4586C8.08465 27.8068 6.87501 24.6892 6.87501 21.5C6.87501 17.2234 9.048 13.1219 12.9159 10.0979C16.7839 7.07388 22.0299 5.375 27.5 5.375ZM27.5 2.6875C22.7409 2.6875 18.0887 3.79083 14.1316 5.85798C10.1745 7.92512 7.09039 10.8632 5.26916 14.3008C3.44793 17.7383 2.97141 21.5209 3.89986 25.1701C4.82832 28.8194 7.12005 32.1715 10.4853 34.8024C13.8505 37.4334 18.138 39.2251 22.8057 39.951C27.4733 40.6769 32.3115 40.3044 36.7083 38.8805C41.1052 37.4566 44.8632 35.0454 47.5072 31.9517C50.1513 28.858 51.5625 25.2208 51.5625 21.5C51.5625 16.5106 49.0274 11.7256 44.5148 8.19755C40.0022 4.66953 33.8818 2.6875 27.5 2.6875Z" fill="white"/>
</svg>
