<svg width="46" height="24" viewBox="0 0 46 24" fill="none" xmlns="http://www.w3.org/2000/svg">
<path d="M5.75 2.94189H2.875V20.5931H5.75V2.94189Z" fill="white"/>
<path d="M38.8125 20.593C39.1937 20.593 39.5594 20.5155 39.829 20.3776C40.0985 20.2397 40.25 20.0526 40.25 19.8575V3.6773C40.2499 3.54814 40.1834 3.42127 40.0571 3.30945C39.9307 3.19762 39.7491 3.10479 39.5304 3.04029C39.3117 2.97579 39.0636 2.9419 38.8112 2.94202C38.5587 2.94214 38.3108 2.97627 38.0923 3.04098L10.7798 11.1311C10.562 11.1957 10.3812 11.2885 10.2555 11.4002C10.1298 11.5118 10.0636 11.6384 10.0636 11.7673C10.0636 11.8961 10.1298 12.0227 10.2555 12.1343C10.3812 12.246 10.562 12.3388 10.7798 12.4034L38.0923 20.4936C38.311 20.5586 38.5595 20.5929 38.8125 20.593Z" fill="white"/>
</svg>
