<svg width="20" height="20" viewBox="0 0 20 20" fill="none" xmlns="http://www.w3.org/2000/svg">
<path d="M9.99603 9.52416e-06C15.1892 -0.00710252 19.5217 3.96973 19.9634 9.14903C20.405 14.3283 16.8084 18.9825 11.6892 19.8565C6.56991 20.7303 1.63545 17.5322 0.337156 12.4992H2.93575C4.20595 16.0953 7.9706 18.1643 11.6838 17.307C15.3969 16.4496 17.8756 12.939 17.4437 9.14928C17.0117 5.35955 13.8067 2.49804 9.99603 2.49985C8.01119 2.50276 6.11075 3.30452 4.72267 4.72472L8.74107 8.74943H0V9.52416e-06L2.93575 2.93733C4.80421 1.05573 7.34562 -0.00159037 9.99603 9.52416e-06Z" fill="white"/>
</svg>
